# WaveFront *.obj file (generated by Autodesk ATF)

mtllib 63b19b36-f22f-4669-a54a-268857c3a678.mtl

g Body1

v 11.750000 8.750000 9.000000
v 11.750000 11.250000 9.000000
v 11.750000 11.250000 3.000000
v 11.750000 8.750000 3.000000
v 8.250000 11.250000 9.000000
v 8.250000 11.250000 3.000000
v 8.250000 8.750000 9.000000
v 8.250000 8.750000 3.000000
v 1.500000 0.500000 4.000000
v 18.500000 0.500000 4.000000
v 18.500000 -2.500000 4.000000
v 1.500000 -2.500000 4.000000
v 1.500000 0.500000 0.000000
v 18.500000 0.500000 0.000000
v 18.500000 19.500000 4.000000
v 1.500000 19.500000 4.000000
v 1.500000 22.500000 4.000000
v 18.500000 22.500000 4.000000
v 18.500000 19.500000 0.000000
v 1.500000 19.500000 0.000000
v 18.500000 0.500000 9.000000
v 18.500000 -2.500000 9.000000
v 1.500000 -2.500000 9.000000
v 1.500000 0.500000 9.000000
v 1.500000 19.500000 9.000000
v 1.500000 22.500000 9.000000
v 18.500000 22.500000 9.000000
v 18.500000 19.500000 9.000000
v 2.500000 17.500000 9.000000
v 17.500000 17.500000 9.000000
v 17.500000 12.000000 9.000000
v 2.500000 12.000000 9.000000
v 2.500000 2.500000 9.000000
v 2.500000 8.000000 9.000000
v 17.500000 8.000000 9.000000
v 17.500000 2.500000 9.000000
v 18.758819 0.534074 9.000000
v 19.000000 0.633974 9.000000
v 19.207107 0.792893 9.000000
v 19.366025 1.000000 9.000000
v 19.465926 1.241181 9.000000
v 19.500000 1.500000 9.000000
v 19.500000 18.500000 9.000000
v 19.465926 18.758819 9.000000
v 19.366025 19.000000 9.000000
v 19.207107 19.207107 9.000000
v 19.000000 19.366025 9.000000
v 18.758819 19.465926 9.000000
v 1.241181 19.465926 9.000000
v 1.000000 19.366025 9.000000
v 0.792893 19.207107 9.000000
v 0.633975 19.000000 9.000000
v 0.534074 18.758819 9.000000
v 0.500000 18.500000 9.000000
v 0.500000 1.500000 9.000000
v 0.534074 1.241181 9.000000
v 0.633975 1.000000 9.000000
v 0.792893 0.792893 9.000000
v 1.000000 0.633974 9.000000
v 1.241181 0.534074 9.000000
v 17.500000 12.000000 3.000000
v 2.500000 12.000000 3.000000
v 17.500000 8.000000 3.000000
v 2.500000 8.000000 3.000000
v 17.500000 17.500000 0.000000
v 17.500000 2.500000 0.000000
v 2.500000 17.500000 0.000000
v 2.500000 2.500000 0.000000
v 0.500000 18.500000 0.000000
v 0.500000 1.500000 0.000000
v 1.241181 19.465926 0.000000
v 1.000000 19.366025 0.000000
v 0.792893 19.207107 0.000000
v 0.633975 19.000000 0.000000
v 0.534074 18.758819 0.000000
v 19.500000 18.500000 0.000000
v 19.465926 18.758819 0.000000
v 19.366025 19.000000 0.000000
v 19.207107 19.207107 0.000000
v 19.000000 19.366025 0.000000
v 18.758819 19.465926 0.000000
v 19.500000 1.500000 0.000000
v 18.758819 0.534074 0.000000
v 19.000000 0.633974 0.000000
v 19.207107 0.792893 0.000000
v 19.366025 1.000000 0.000000
v 19.465926 1.241181 0.000000
v 0.534074 1.241181 0.000000
v 0.633975 1.000000 0.000000
v 0.792893 0.792893 0.000000
v 1.000000 0.633974 0.000000
v 1.241181 0.534074 0.000000
vt -0.250000 0.000000 0.000000
vt -0.000000 0.000000 0.000000
vt -0.250000 0.600000 0.000000
vt -0.000000 0.600000 0.000000
vt -0.350000 0.000000 0.000000
vt -0.000000 0.000000 0.000000
vt -0.350000 0.600000 0.000000
vt -0.000000 0.600000 0.000000
vt -0.250000 0.000000 0.000000
vt -0.000000 0.000000 0.000000
vt -0.250000 0.600000 0.000000
vt -0.000000 0.600000 0.000000
vt -0.350000 0.000000 0.000000
vt -0.000000 0.000000 0.000000
vt -0.350000 0.600000 0.000000
vt -0.000000 0.600000 0.000000
vt 0.850000 -0.950000 0.000000
vt -0.850000 -0.950000 0.000000
vt 0.850000 -1.250000 0.000000
vt -0.850000 -1.250000 0.000000
vt 1.700000 0.400000 0.000000
vt -0.000000 0.400000 0.000000
vt 1.700000 0.000000 0.000000
vt 0.000000 0.000000 0.000000
vt -0.850000 0.950000 0.000000
vt 0.850000 0.950000 0.000000
vt -0.850000 1.250000 0.000000
vt 0.850000 1.250000 0.000000
vt 1.700000 0.400000 0.000000
vt -0.000000 0.400000 0.000000
vt 1.700000 0.000000 0.000000
vt -0.000000 0.000000 0.000000
vt 0.300000 0.300000 0.000000
vt 0.000000 0.300000 0.000000
vt 0.300000 -0.200000 0.000000
vt 0.000000 -0.200000 0.000000
vt 1.700000 0.300000 0.000000
vt -0.000000 0.300000 0.000000
vt 1.700000 -0.200000 0.000000
vt 0.000000 -0.200000 0.000000
vt 0.300000 0.300000 0.000000
vt 0.000000 0.300000 0.000000
vt 0.300000 -0.200000 0.000000
vt 0.000000 -0.200000 0.000000
vt 0.300000 0.300000 0.000000
vt 0.000000 0.300000 0.000000
vt 0.300000 -0.200000 0.000000
vt 0.000000 -0.200000 0.000000
vt 1.700000 0.300000 0.000000
vt 0.000000 0.300000 0.000000
vt 1.700000 -0.200000 0.000000
vt 0.000000 -0.200000 0.000000
vt 0.300000 0.300000 0.000000
vt 0.000000 0.300000 0.000000
vt 0.300000 -0.200000 0.000000
vt 0.000000 -0.200000 0.000000
vt -0.175000 0.125000 0.000000
vt -0.750000 -0.200000 0.000000
vt -0.175000 -0.125000 0.000000
vt 0.750000 -0.200000 0.000000
vt 0.175000 -0.125000 0.000000
vt 0.175000 0.125000 0.000000
vt 0.750000 0.200000 0.000000
vt -0.750000 0.200000 0.000000
vt -0.750000 -0.750000 0.000000
vt 0.850000 -1.250000 0.000000
vt 0.750000 -0.750000 0.000000
vt 0.850000 -0.950000 0.000000
vt 0.950000 -0.850000 0.000000
vt 0.875882 -0.946593 0.000000
vt 0.900000 -0.936603 0.000000
vt -0.950000 -0.850000 0.000000
vt -0.850000 -0.950000 0.000000
vt -0.850000 -1.250000 0.000000
vt 0.950000 0.850000 0.000000
vt 0.750000 0.750000 0.000000
vt 0.850000 0.950000 0.000000
vt 0.850000 1.250000 0.000000
vt -0.750000 0.750000 0.000000
vt -0.950000 0.850000 0.000000
vt -0.850000 1.250000 0.000000
vt -0.850000 0.950000 0.000000
vt -0.875882 0.946593 0.000000
vt -0.900000 0.936603 0.000000
vt -0.920711 0.920711 0.000000
vt -0.936603 0.900000 0.000000
vt -0.946593 0.875882 0.000000
vt -0.946593 -0.875882 0.000000
vt -0.936603 -0.900000 0.000000
vt -0.920711 -0.920711 0.000000
vt -0.900000 -0.936603 0.000000
vt -0.875882 -0.946593 0.000000
vt 0.920711 -0.920711 0.000000
vt 0.936603 -0.900000 0.000000
vt 0.946593 -0.875882 0.000000
vt 0.946593 0.875882 0.000000
vt 0.936603 0.900000 0.000000
vt 0.920711 0.920711 0.000000
vt 0.900000 0.936603 0.000000
vt 0.875882 0.946593 0.000000
vt 0.200000 0.000000 0.000000
vt 1.700000 0.000000 0.000000
vt 0.200000 0.600000 0.000000
vt 1.700000 0.600000 0.000000
vt 1.700000 0.600000 0.000000
vt 0.200000 0.600000 0.000000
vt 1.700000 0.000000 0.000000
vt 0.200000 0.000000 0.000000
vt 0.175000 -0.125000 0.000000
vt 0.750000 -0.200000 0.000000
vt 0.175000 0.125000 0.000000
vt 0.750000 0.200000 0.000000
vt -0.750000 0.200000 0.000000
vt -0.175000 -0.125000 0.000000
vt -0.750000 -0.200000 0.000000
vt -0.175000 0.125000 0.000000
vt -0.000000 0.900000 0.000000
vt 0.000000 0.000000 0.000000
vt 0.550000 0.300000 0.000000
vt 1.500000 0.000000 0.000000
vt 0.950000 0.300000 0.000000
vt 1.500000 0.900000 0.000000
vt 0.950000 0.900000 0.000000
vt 0.550000 0.900000 0.000000
vt 0.000000 0.000000 0.000000
vt 1.500000 0.000000 0.000000
vt -0.000000 0.900000 0.000000
vt 1.500000 0.900000 0.000000
vt 0.000000 0.900000 0.000000
vt 0.000000 0.000000 0.000000
vt 0.550000 0.300000 0.000000
vt 1.500000 0.000000 0.000000
vt 0.950000 0.300000 0.000000
vt 1.500000 0.900000 0.000000
vt 0.950000 0.900000 0.000000
vt 0.550000 0.900000 0.000000
vt 0.000000 0.000000 0.000000
vt 1.500000 0.000000 0.000000
vt -0.000000 0.900000 0.000000
vt 1.500000 0.900000 0.000000
vt 0.000000 0.000000 0.000000
vt 1.700000 0.000000 0.000000
vt 0.000000 0.900000 0.000000
vt 1.700000 0.900000 0.000000
vt -0.000000 0.000000 0.000000
vt -0.000000 0.026180 0.000000
vt -0.400000 0.000000 0.000000
vt -0.900000 0.026180 0.000000
vt -0.900000 0.000000 0.000000
vt -0.900000 0.052360 0.000000
vt -0.000000 0.052360 0.000000
vt -0.900000 0.078540 0.000000
vt -0.000000 0.078540 0.000000
vt -0.900000 0.104720 0.000000
vt -0.000000 0.104720 0.000000
vt -0.900000 0.130900 0.000000
vt -0.000000 0.130900 0.000000
vt -0.900000 0.157080 0.000000
vt -0.000000 0.157080 0.000000
vt -0.900000 0.000000 0.000000
vt -0.000000 0.000000 0.000000
vt -0.900000 0.026180 0.000000
vt -0.000000 0.026180 0.000000
vt -0.900000 0.052360 0.000000
vt -0.000000 0.052360 0.000000
vt -0.900000 0.078540 0.000000
vt -0.000000 0.078540 0.000000
vt -0.900000 0.104720 0.000000
vt -0.000000 0.104720 0.000000
vt -0.900000 0.130900 0.000000
vt -0.000000 0.130900 0.000000
vt -0.400000 0.157080 0.000000
vt -0.000000 0.157080 0.000000
vt -0.900000 0.157080 0.000000
vt 0.000000 0.000000 0.000000
vt 1.700000 0.000000 0.000000
vt 0.000000 0.900000 0.000000
vt 1.700000 0.900000 0.000000
vt -0.000000 0.000000 0.000000
vt -0.000000 0.026180 0.000000
vt -0.400000 0.000000 0.000000
vt -0.900000 0.026180 0.000000
vt -0.900000 0.000000 0.000000
vt -0.900000 0.052360 0.000000
vt -0.000000 0.052360 0.000000
vt -0.900000 0.078540 0.000000
vt -0.000000 0.078540 0.000000
vt -0.900000 0.104720 0.000000
vt -0.000000 0.104720 0.000000
vt -0.900000 0.130900 0.000000
vt -0.000000 0.130900 0.000000
vt -0.900000 0.157080 0.000000
vt -0.000000 0.157080 0.000000
vt -0.900000 -0.000000 0.000000
vt -0.000000 0.000000 0.000000
vt -0.900000 0.026180 0.000000
vt -0.000000 0.026180 0.000000
vt -0.900000 0.052360 0.000000
vt -0.000000 0.052360 0.000000
vt -0.900000 0.078540 0.000000
vt -0.000000 0.078540 0.000000
vt -0.900000 0.104720 0.000000
vt -0.000000 0.104720 0.000000
vt -0.900000 0.130900 0.000000
vt -0.000000 0.130900 0.000000
vt -0.400000 0.157080 0.000000
vt -0.000000 0.157080 0.000000
vt -0.900000 0.157080 0.000000
vt -0.750000 -0.750000 0.000000
vt 0.850000 -0.950000 0.000000
vt 0.750000 -0.750000 0.000000
vt 0.875882 -0.946593 0.000000
vt 0.900000 -0.936603 0.000000
vt -0.750000 0.750000 0.000000
vt -0.950000 -0.850000 0.000000
vt -0.946593 -0.875882 0.000000
vt -0.936603 -0.900000 0.000000
vt 0.750000 0.750000 0.000000
vt -0.850000 0.950000 0.000000
vt -0.950000 0.850000 0.000000
vt 0.950000 -0.850000 0.000000
vt 0.950000 0.850000 0.000000
vt 0.850000 0.950000 0.000000
vt 0.946593 0.875882 0.000000
vt 0.936603 0.900000 0.000000
vt 0.920711 -0.920711 0.000000
vt 0.936603 -0.900000 0.000000
vt 0.946593 -0.875882 0.000000
vt 0.920711 0.920711 0.000000
vt 0.900000 0.936603 0.000000
vt 0.875882 0.946593 0.000000
vt -0.875882 0.946593 0.000000
vt -0.900000 0.936603 0.000000
vt -0.920711 0.920711 0.000000
vt -0.936603 0.900000 0.000000
vt -0.946593 0.875882 0.000000
vt -0.920711 -0.920711 0.000000
vt -0.900000 -0.936603 0.000000
vt -0.875882 -0.946593 0.000000
vt -0.850000 -0.950000 0.000000
vn -0.100000 0.000000 0.000000
vn -0.100000 0.000000 0.000000
vn -0.100000 0.000000 0.000000
vn -0.100000 0.000000 0.000000
vn 0.000000 -0.100000 0.000000
vn 0.000000 -0.100000 0.000000
vn 0.000000 -0.100000 0.000000
vn 0.000000 -0.100000 0.000000
vn 0.100000 0.000000 0.000000
vn 0.100000 0.000000 0.000000
vn 0.100000 0.000000 0.000000
vn 0.100000 0.000000 0.000000
vn 0.000000 0.100000 0.000000
vn 0.000000 0.100000 0.000000
vn 0.000000 0.100000 0.000000
vn 0.000000 0.100000 0.000000
vn 0.000000 0.000000 -0.100000
vn 0.000000 0.000000 -0.100000
vn 0.000000 0.000000 -0.100000
vn 0.000000 0.000000 -0.100000
vn 0.000000 -0.100000 0.000000
vn 0.000000 -0.100000 0.000000
vn 0.000000 -0.100000 0.000000
vn 0.000000 -0.100000 0.000000
vn 0.000000 0.000000 -0.100000
vn 0.000000 0.000000 -0.100000
vn 0.000000 0.000000 -0.100000
vn 0.000000 0.000000 -0.100000
vn 0.000000 0.100000 0.000000
vn 0.000000 0.100000 0.000000
vn 0.000000 0.100000 0.000000
vn 0.000000 0.100000 0.000000
vn 0.100000 0.000000 0.000000
vn 0.100000 0.000000 0.000000
vn 0.100000 0.000000 0.000000
vn 0.100000 0.000000 0.000000
vn -0.000000 -0.100000 0.000000
vn -0.000000 -0.100000 0.000000
vn -0.000000 -0.100000 0.000000
vn -0.000000 -0.100000 0.000000
vn -0.100000 0.000000 0.000000
vn -0.100000 0.000000 0.000000
vn -0.100000 0.000000 0.000000
vn -0.100000 0.000000 0.000000
vn -0.100000 0.000000 0.000000
vn -0.100000 0.000000 0.000000
vn -0.100000 0.000000 0.000000
vn -0.100000 0.000000 0.000000
vn 0.000000 0.100000 0.000000
vn 0.000000 0.100000 0.000000
vn 0.000000 0.100000 0.000000
vn 0.000000 0.100000 0.000000
vn 0.100000 0.000000 0.000000
vn 0.100000 0.000000 0.000000
vn 0.100000 0.000000 0.000000
vn 0.100000 0.000000 0.000000
vn 0.000000 0.000000 0.100000
vn 0.000000 0.000000 0.100000
vn 0.000000 0.000000 0.100000
vn 0.000000 0.000000 0.100000
vn 0.000000 0.000000 0.100000
vn 0.000000 0.000000 0.100000
vn 0.000000 0.000000 0.100000
vn 0.000000 0.000000 0.100000
vn 0.000000 0.000000 0.100000
vn 0.000000 0.000000 0.100000
vn 0.000000 0.000000 0.100000
vn 0.000000 0.000000 0.100000
vn 0.000000 0.000000 0.100000
vn 0.000000 0.000000 0.100000
vn 0.000000 0.000000 0.100000
vn 0.000000 0.000000 0.100000
vn 0.000000 0.000000 0.100000
vn 0.000000 0.000000 0.100000
vn 0.000000 0.000000 0.100000
vn 0.000000 0.000000 0.100000
vn 0.000000 0.000000 0.100000
vn 0.000000 0.000000 0.100000
vn 0.000000 0.000000 0.100000
vn 0.000000 0.000000 0.100000
vn 0.000000 0.000000 0.100000
vn 0.000000 0.000000 0.100000
vn 0.000000 0.000000 0.100000
vn 0.000000 0.000000 0.100000
vn 0.000000 0.000000 0.100000
vn 0.000000 0.000000 0.100000
vn 0.000000 0.000000 0.100000
vn 0.000000 0.000000 0.100000
vn 0.000000 0.000000 0.100000
vn 0.000000 0.000000 0.100000
vn 0.000000 0.000000 0.100000
vn 0.000000 0.000000 0.100000
vn 0.000000 0.000000 0.100000
vn 0.000000 0.000000 0.100000
vn 0.000000 0.000000 0.100000
vn 0.000000 0.000000 0.100000
vn 0.000000 0.000000 0.100000
vn 0.000000 0.000000 0.100000
vn 0.000000 0.000000 0.100000
vn 0.000000 0.000000 0.100000
vn 0.000000 0.100000 0.000000
vn 0.000000 0.100000 0.000000
vn 0.000000 0.100000 0.000000
vn 0.000000 0.100000 0.000000
vn 0.000000 -0.100000 0.000000
vn 0.000000 -0.100000 0.000000
vn 0.000000 -0.100000 0.000000
vn 0.000000 -0.100000 0.000000
vn 0.000000 0.000000 -0.100000
vn 0.000000 0.000000 -0.100000
vn 0.000000 0.000000 -0.100000
vn 0.000000 0.000000 -0.100000
vn 0.000000 0.000000 -0.100000
vn 0.000000 0.000000 -0.100000
vn 0.000000 0.000000 -0.100000
vn 0.000000 0.000000 -0.100000
vn -0.100000 0.000000 0.000000
vn -0.100000 0.000000 0.000000
vn -0.100000 0.000000 0.000000
vn -0.100000 0.000000 0.000000
vn -0.100000 0.000000 0.000000
vn -0.100000 0.000000 0.000000
vn -0.100000 0.000000 0.000000
vn -0.100000 0.000000 0.000000
vn 0.000000 -0.100000 0.000000
vn 0.000000 -0.100000 0.000000
vn 0.000000 -0.100000 0.000000
vn 0.000000 -0.100000 0.000000
vn 0.100000 0.000000 0.000000
vn 0.100000 0.000000 0.000000
vn 0.100000 0.000000 0.000000
vn 0.100000 0.000000 0.000000
vn 0.100000 0.000000 0.000000
vn 0.100000 0.000000 0.000000
vn 0.100000 0.000000 0.000000
vn 0.100000 0.000000 0.000000
vn -0.000000 0.100000 0.000000
vn -0.000000 0.100000 0.000000
vn -0.000000 0.100000 0.000000
vn -0.000000 0.100000 0.000000
vn -0.100000 0.000000 0.000000
vn -0.100000 0.000000 0.000000
vn -0.100000 0.000000 0.000000
vn -0.100000 0.000000 0.000000
vn -0.025882 0.096593 -0.000000
vn -0.025882 0.096593 -0.000000
vn -0.000000 0.100000 -0.000000
vn -0.050000 0.086603 -0.000000
vn -0.050000 0.086603 -0.000000
vn -0.070711 0.070711 -0.000000
vn -0.070711 0.070711 -0.000000
vn -0.086603 0.050000 -0.000000
vn -0.086603 0.050000 -0.000000
vn -0.096593 0.025882 -0.000000
vn -0.096593 0.025882 -0.000000
vn 0.100000 0.000000 0.000000
vn 0.100000 0.000000 0.000000
vn 0.096593 0.025882 0.000000
vn 0.096593 0.025882 0.000000
vn 0.086603 0.050000 0.000000
vn 0.086603 0.050000 0.000000
vn 0.070711 0.070711 0.000000
vn 0.070711 0.070711 0.000000
vn 0.050000 0.086603 0.000000
vn 0.050000 0.086603 0.000000
vn 0.025882 0.096593 0.000000
vn 0.025882 0.096593 0.000000
vn 0.000000 0.100000 0.000000
vn 0.100000 0.000000 0.000000
vn 0.100000 0.000000 0.000000
vn 0.025882 -0.096593 0.000000
vn 0.025882 -0.096593 0.000000
vn 0.000000 -0.100000 0.000000
vn 0.050000 -0.086603 0.000000
vn 0.050000 -0.086603 0.000000
vn 0.070711 -0.070711 0.000000
vn 0.070711 -0.070711 0.000000
vn 0.086603 -0.050000 0.000000
vn 0.086603 -0.050000 0.000000
vn 0.096593 -0.025882 0.000000
vn 0.096593 -0.025882 0.000000
vn -0.096593 -0.025882 0.000000
vn -0.096593 -0.025882 0.000000
vn -0.086603 -0.050000 0.000000
vn -0.086603 -0.050000 0.000000
vn -0.070711 -0.070711 0.000000
vn -0.070711 -0.070711 0.000000
vn -0.050000 -0.086603 0.000000
vn -0.050000 -0.086603 0.000000
vn -0.025882 -0.096593 0.000000
vn -0.025882 -0.096593 0.000000
vn -0.000000 -0.100000 0.000000
vn -0.000000 0.000000 -0.100000
vn -0.000000 0.000000 -0.100000
vn -0.000000 0.000000 -0.100000
vn -0.000000 0.000000 -0.100000
vn -0.000000 0.000000 -0.100000
vn -0.000000 0.000000 -0.100000
vn -0.000000 0.000000 -0.100000
vn -0.000000 0.000000 -0.100000
vn -0.000000 0.000000 -0.100000
vn -0.000000 0.000000 -0.100000
vn -0.000000 0.000000 -0.100000
vn -0.000000 0.000000 -0.100000
vn -0.000000 0.000000 -0.100000
vn -0.000000 0.000000 -0.100000
vn -0.000000 0.000000 -0.100000
vn -0.000000 0.000000 -0.100000
vn -0.000000 0.000000 -0.100000
vn -0.000000 0.000000 -0.100000
vn -0.000000 0.000000 -0.100000
vn -0.000000 0.000000 -0.100000
vn -0.000000 0.000000 -0.100000
vn -0.000000 0.000000 -0.100000
vn -0.000000 0.000000 -0.100000
vn -0.000000 0.000000 -0.100000
vn -0.000000 0.000000 -0.100000
vn -0.000000 0.000000 -0.100000
vn -0.000000 0.000000 -0.100000
vn -0.000000 0.000000 -0.100000
vn -0.000000 0.000000 -0.100000
vn -0.000000 0.000000 -0.100000
vn -0.000000 0.000000 -0.100000
vn -0.000000 0.000000 -0.100000
usemtl Steel_-_Satin
f 1/1/1 2/2/2 4/3/3
f 4/3/3 2/2/2 3/4/4
f 2/5/5 5/6/6 3/7/7
f 3/7/7 5/6/6 6/8/8
f 5/9/9 7/10/10 6/11/11
f 6/11/11 7/10/10 8/12/12
f 7/13/13 1/14/14 8/15/15
f 8/15/15 1/14/14 4/16/16
f 9/17/17 10/18/18 12/19/19
f 12/19/19 10/18/18 11/20/20
f 10/21/21 9/22/22 14/23/23
f 14/23/23 9/22/22 13/24/24
f 15/25/25 16/26/26 18/27/27
f 18/27/27 16/26/26 17/28/28
f 16/29/29 15/30/30 20/31/31
f 20/31/31 15/30/30 19/32/32
f 21/33/33 22/34/34 10/35/35
f 10/35/35 22/34/34 11/36/36
f 22/37/37 23/38/38 11/39/39
f 11/39/39 23/38/38 12/40/40
f 23/41/41 24/42/42 12/43/43
f 12/43/43 24/42/42 9/44/44
f 25/45/45 26/46/46 16/47/47
f 16/47/47 26/46/46 17/48/48
f 26/49/49 27/50/50 17/51/51
f 17/51/51 27/50/50 18/52/52
f 27/53/53 28/54/54 18/55/55
f 18/55/55 28/54/54 15/56/56
f 1/57/57 31/58/58 2/59/59
f 2/59/59 31/58/58 32/60/60
f 2/59/59 32/60/60 5/61/61
f 5/61/61 32/60/60 7/62/62
f 7/62/62 32/60/60 34/63/63
f 7/62/62 34/63/63 35/64/64
f 31/58/58 1/57/57 35/64/64
f 35/64/64 1/57/57 7/62/62
f 30/65/65 26/66/66 29/67/67
f 29/67/67 26/66/66 25/68/68
f 29/67/67 25/68/68 54/69/69
f 54/69/69 25/68/68 49/70/70
f 54/69/69 49/70/70 50/71/71
f 31/58/58 43/72/72 30/65/65
f 30/65/65 43/72/72 28/73/73
f 30/65/65 28/73/73 27/74/74
f 34/63/63 32/60/60 54/69/69
f 54/69/69 32/60/60 29/67/67
f 34/63/63 55/75/75 33/76/76
f 33/76/76 55/75/75 24/77/77
f 33/76/76 24/77/77 23/78/78
f 36/79/79 42/80/80 35/64/64
f 35/64/64 42/80/80 43/72/72
f 35/64/64 43/72/72 31/58/58
f 33/76/76 22/81/81 36/79/79
f 36/79/79 22/81/81 21/82/82
f 36/79/79 21/82/82 42/80/80
f 42/80/80 21/82/82 37/83/83
f 42/80/80 37/83/83 38/84/84
f 38/84/84 39/85/85 42/80/80
f 42/80/80 39/85/85 40/86/86
f 42/80/80 40/86/86 41/87/87
f 44/88/88 45/89/89 43/72/72
f 43/72/72 45/89/89 46/90/90
f 43/72/72 46/90/90 47/91/91
f 47/91/91 48/92/92 43/72/72
f 43/72/72 48/92/92 28/73/73
f 27/74/74 26/66/66 30/65/65
f 50/71/71 51/93/93 54/69/69
f 54/69/69 51/93/93 52/94/94
f 54/69/69 52/94/94 53/95/95
f 54/69/69 55/75/75 34/63/63
f 56/96/96 57/97/97 55/75/75
f 55/75/75 57/97/97 58/98/98
f 55/75/75 58/98/98 59/99/99
f 59/99/99 60/100/100 55/75/75
f 55/75/75 60/100/100 24/77/77
f 23/78/78 22/81/81 33/76/76
f 61/101/101 62/102/102 31/103/103
f 31/103/103 62/102/102 32/104/104
f 35/105/105 34/106/106 63/107/107
f 63/107/107 34/106/106 64/108/108
f 3/109/109 61/110/110 4/111/111
f 4/111/111 61/110/110 63/112/112
f 4/111/111 63/112/112 64/113/113
f 3/109/109 6/114/114 61/110/110
f 61/110/110 6/114/114 62/115/115
f 62/115/115 6/114/114 8/116/116
f 62/115/115 8/116/116 64/113/113
f 64/113/113 8/116/116 4/111/111
f 30/117/117 65/118/118 61/119/119
f 61/119/119 65/118/118 66/120/120
f 61/119/119 66/120/120 63/121/121
f 63/121/121 66/120/120 36/122/122
f 63/121/121 36/122/122 35/123/123
f 61/119/119 31/124/124 30/117/117
f 67/125/125 65/126/126 29/127/127
f 29/127/127 65/126/126 30/128/128
f 33/129/129 68/130/130 64/131/131
f 64/131/131 68/130/130 67/132/132
f 64/131/131 67/132/132 62/133/133
f 62/133/133 67/132/132 29/134/134
f 62/133/133 29/134/134 32/135/135
f 64/131/131 34/136/136 33/129/129
f 66/137/137 68/138/138 36/139/139
f 36/139/139 68/138/138 33/140/140
f 69/141/141 70/142/142 54/143/143
f 54/143/143 70/142/142 55/144/144
f 20/145/31 71/146/145 16/147/29
f 16/147/29 71/146/145 49/148/146
f 16/147/29 49/148/146 25/149/147
f 49/148/146 71/146/145 50/150/148
f 50/150/148 71/146/145 72/151/149
f 50/150/148 72/151/149 51/152/150
f 51/152/150 72/151/149 73/153/151
f 51/152/150 73/153/151 52/154/152
f 52/154/152 73/153/151 74/155/153
f 52/154/152 74/155/153 53/156/154
f 53/156/154 74/155/153 75/157/155
f 53/156/154 75/157/155 54/158/143
f 54/158/143 75/157/155 69/159/141
f 43/160/156 76/161/157 44/162/158
f 44/162/158 76/161/157 77/163/159
f 44/162/158 77/163/159 45/164/160
f 45/164/160 77/163/159 78/165/161
f 45/164/160 78/165/161 46/166/162
f 46/166/162 78/165/161 79/167/163
f 46/166/162 79/167/163 47/168/164
f 47/168/164 79/167/163 80/169/165
f 47/168/164 80/169/165 48/170/166
f 48/170/166 80/169/165 81/171/167
f 48/170/166 81/171/167 15/172/30
f 15/172/30 81/171/167 19/173/32
f 15/172/30 28/174/168 48/170/166
f 82/175/169 76/176/157 42/177/170
f 42/177/170 76/176/157 43/178/156
f 14/179/23 83/180/171 10/181/21
f 10/181/21 83/180/171 37/182/172
f 10/181/21 37/182/172 21/183/173
f 37/182/172 83/180/171 38/184/174
f 38/184/174 83/180/171 84/185/175
f 38/184/174 84/185/175 39/186/176
f 39/186/176 84/185/175 85/187/177
f 39/186/176 85/187/177 40/188/178
f 40/188/178 85/187/177 86/189/179
f 40/188/178 86/189/179 41/190/180
f 41/190/180 86/189/179 87/191/181
f 41/190/180 87/191/181 42/192/170
f 42/192/170 87/191/181 82/193/169
f 55/194/144 70/195/142 56/196/182
f 56/196/182 70/195/142 88/197/183
f 56/196/182 88/197/183 57/198/184
f 57/198/184 88/197/183 89/199/185
f 57/198/184 89/199/185 58/200/186
f 58/200/186 89/199/185 90/201/187
f 58/200/186 90/201/187 59/202/188
f 59/202/188 90/201/187 91/203/189
f 59/202/188 91/203/189 60/204/190
f 60/204/190 91/203/189 92/205/191
f 60/204/190 92/205/191 9/206/22
f 9/206/22 92/205/191 13/207/24
f 9/206/22 24/208/192 60/204/190
f 66/209/193 13/210/194 68/211/195
f 68/211/195 13/210/194 92/212/196
f 68/211/195 92/212/196 91/213/197
f 65/214/198 82/215/199 66/209/193
f 66/209/193 82/215/199 87/216/200
f 66/209/193 87/216/200 86/217/201
f 67/218/202 19/219/203 65/214/198
f 65/214/198 19/219/203 76/220/204
f 65/214/198 76/220/204 82/215/199
f 68/211/195 70/221/205 67/218/202
f 67/218/202 70/221/205 69/222/206
f 67/218/202 69/222/206 20/223/207
f 20/223/207 69/222/206 75/224/208
f 20/223/207 75/224/208 74/225/209
f 91/213/197 90/226/210 68/211/195
f 68/211/195 90/226/210 89/227/211
f 68/211/195 89/227/211 88/228/212
f 88/228/212 70/221/205 68/211/195
f 74/225/209 73/229/213 20/223/207
f 20/223/207 73/229/213 72/230/214
f 20/223/207 72/230/214 71/231/215
f 20/223/207 19/219/203 67/218/202
f 81/232/216 80/233/217 19/219/203
f 19/219/203 80/233/217 79/234/218
f 19/219/203 79/234/218 78/235/219
f 78/235/219 77/236/220 19/219/203
f 19/219/203 77/236/220 76/220/204
f 86/217/201 85/237/221 66/209/193
f 66/209/193 85/237/221 84/238/222
f 66/209/193 84/238/222 83/239/223
f 83/239/223 14/240/224 66/209/193
f 66/209/193 14/240/224 13/210/194

# 92 vertices
# 240 texture params
# 224 normals
# 192 facets

# 1 groups
