# WaveFront *.obj file (generated by Autodesk ATF)

mtllib 5ea893d6-35d3-48ea-97d5-5e6db6e46e45.mtl

g Body1

v 1.500000 0.500000 4.000000
v 18.500000 0.500000 4.000000
v 18.500000 -2.500000 4.000000
v 1.500000 -2.500000 4.000000
v 1.500000 0.500000 0.000000
v 18.500000 0.500000 0.000000
v 18.500000 19.500000 4.000000
v 1.500000 19.500000 4.000000
v 1.500000 22.500000 4.000000
v 18.500000 22.500000 4.000000
v 18.500000 19.500000 0.000000
v 1.500000 19.500000 0.000000
v 18.500000 0.500000 9.000000
v 18.500000 -2.500000 9.000000
v 1.500000 -2.500000 9.000000
v 1.500000 0.500000 9.000000
v 1.500000 19.500000 9.000000
v 1.500000 22.500000 9.000000
v 18.500000 22.500000 9.000000
v 18.500000 19.500000 9.000000
v 2.500000 17.500000 9.000000
v 17.500000 17.500000 9.000000
v 17.500000 12.000000 9.000000
v 2.500000 12.000000 9.000000
v 8.500000 11.000000 9.000000
v 11.500000 11.000000 9.000000
v 11.500000 9.000000 9.000000
v 8.500000 9.000000 9.000000
v 2.500000 2.500000 9.000000
v 2.500000 8.000000 9.000000
v 17.500000 8.000000 9.000000
v 17.500000 2.500000 9.000000
v 18.758819 0.534074 9.000000
v 19.000000 0.633974 9.000000
v 19.207107 0.792893 9.000000
v 19.366025 1.000000 9.000000
v 19.465926 1.241181 9.000000
v 19.500000 1.500000 9.000000
v 19.500000 18.500000 9.000000
v 19.465926 18.758819 9.000000
v 19.366025 19.000000 9.000000
v 19.207107 19.207107 9.000000
v 19.000000 19.366025 9.000000
v 18.758819 19.465926 9.000000
v 1.241181 19.465926 9.000000
v 1.000000 19.366025 9.000000
v 0.792893 19.207107 9.000000
v 0.633975 19.000000 9.000000
v 0.534074 18.758819 9.000000
v 0.500000 18.500000 9.000000
v 0.500000 1.500000 9.000000
v 0.534074 1.241181 9.000000
v 0.633975 1.000000 9.000000
v 0.792893 0.792893 9.000000
v 1.000000 0.633974 9.000000
v 1.241181 0.534074 9.000000
v 17.500000 12.000000 3.000000
v 2.500000 12.000000 3.000000
v 11.500000 11.000000 3.000000
v 11.500000 9.000000 3.000000
v 8.500000 11.000000 3.000000
v 8.500000 9.000000 3.000000
v 17.500000 8.000000 3.000000
v 2.500000 8.000000 3.000000
v 17.500000 17.500000 0.000000
v 17.500000 2.500000 0.000000
v 2.500000 17.500000 0.000000
v 2.500000 2.500000 0.000000
v 0.500000 18.500000 0.000000
v 0.500000 1.500000 0.000000
v 1.241181 19.465926 0.000000
v 1.000000 19.366025 0.000000
v 0.792893 19.207107 0.000000
v 0.633975 19.000000 0.000000
v 0.534074 18.758819 0.000000
v 19.500000 18.500000 0.000000
v 19.465926 18.758819 0.000000
v 19.366025 19.000000 0.000000
v 19.207107 19.207107 0.000000
v 19.000000 19.366025 0.000000
v 18.758819 19.465926 0.000000
v 19.500000 1.500000 0.000000
v 18.758819 0.534074 0.000000
v 19.000000 0.633974 0.000000
v 19.207107 0.792893 0.000000
v 19.366025 1.000000 0.000000
v 19.465926 1.241181 0.000000
v 0.534074 1.241181 0.000000
v 0.633975 1.000000 0.000000
v 0.792893 0.792893 0.000000
v 1.000000 0.633974 0.000000
v 1.241181 0.534074 0.000000
vt 0.850000 -0.950000 0.000000
vt -0.850000 -0.950000 0.000000
vt 0.850000 -1.250000 0.000000
vt -0.850000 -1.250000 0.000000
vt 1.700000 0.400000 0.000000
vt -0.000000 0.400000 0.000000
vt 1.700000 0.000000 0.000000
vt 0.000000 0.000000 0.000000
vt -0.850000 0.950000 0.000000
vt 0.850000 0.950000 0.000000
vt -0.850000 1.250000 0.000000
vt 0.850000 1.250000 0.000000
vt 1.700000 0.400000 0.000000
vt -0.000000 0.400000 0.000000
vt 1.700000 0.000000 0.000000
vt -0.000000 0.000000 0.000000
vt 0.300000 0.300000 0.000000
vt 0.000000 0.300000 0.000000
vt 0.300000 -0.200000 0.000000
vt 0.000000 -0.200000 0.000000
vt 1.700000 0.300000 0.000000
vt -0.000000 0.300000 0.000000
vt 1.700000 -0.200000 0.000000
vt 0.000000 -0.200000 0.000000
vt 0.300000 0.300000 0.000000
vt 0.000000 0.300000 0.000000
vt 0.300000 -0.200000 0.000000
vt 0.000000 -0.200000 0.000000
vt 0.300000 0.300000 0.000000
vt 0.000000 0.300000 0.000000
vt 0.300000 -0.200000 0.000000
vt 0.000000 -0.200000 0.000000
vt 1.700000 0.300000 0.000000
vt 0.000000 0.300000 0.000000
vt 1.700000 -0.200000 0.000000
vt 0.000000 -0.200000 0.000000
vt 0.300000 0.300000 0.000000
vt 0.000000 0.300000 0.000000
vt 0.300000 -0.200000 0.000000
vt 0.000000 -0.200000 0.000000
vt -0.750000 -0.750000 0.000000
vt 0.850000 -1.250000 0.000000
vt 0.750000 -0.750000 0.000000
vt 0.850000 -0.950000 0.000000
vt 0.950000 -0.850000 0.000000
vt 0.875882 -0.946593 0.000000
vt 0.900000 -0.936603 0.000000
vt -0.750000 -0.200000 0.000000
vt -0.950000 -0.850000 0.000000
vt -0.850000 -0.950000 0.000000
vt -0.850000 -1.250000 0.000000
vt 0.750000 -0.200000 0.000000
vt -0.150000 -0.100000 0.000000
vt -0.150000 0.100000 0.000000
vt -0.750000 0.200000 0.000000
vt 0.150000 0.100000 0.000000
vt 0.750000 0.200000 0.000000
vt 0.150000 -0.100000 0.000000
vt 0.950000 0.850000 0.000000
vt 0.750000 0.750000 0.000000
vt 0.850000 0.950000 0.000000
vt 0.850000 1.250000 0.000000
vt -0.750000 0.750000 0.000000
vt -0.950000 0.850000 0.000000
vt -0.850000 1.250000 0.000000
vt -0.850000 0.950000 0.000000
vt -0.875882 0.946593 0.000000
vt -0.900000 0.936603 0.000000
vt -0.920711 0.920711 0.000000
vt -0.936603 0.900000 0.000000
vt -0.946593 0.875882 0.000000
vt -0.946593 -0.875882 0.000000
vt -0.936603 -0.900000 0.000000
vt -0.920711 -0.920711 0.000000
vt -0.900000 -0.936603 0.000000
vt -0.875882 -0.946593 0.000000
vt 0.920711 -0.920711 0.000000
vt 0.936603 -0.900000 0.000000
vt 0.946593 -0.875882 0.000000
vt 0.946593 0.875882 0.000000
vt 0.936603 0.900000 0.000000
vt 0.920711 0.920711 0.000000
vt 0.900000 0.936603 0.000000
vt 0.875882 0.946593 0.000000
vt 0.200000 0.000000 0.000000
vt 1.700000 0.000000 0.000000
vt 0.200000 0.600000 0.000000
vt 1.700000 0.600000 0.000000
vt 0.000000 0.000000 0.000000
vt 0.200000 0.000000 0.000000
vt 0.000000 0.600000 0.000000
vt 0.200000 0.600000 0.000000
vt 0.000000 0.000000 0.000000
vt 0.300000 0.000000 0.000000
vt 0.000000 0.600000 0.000000
vt 0.300000 0.600000 0.000000
vt 0.000000 0.000000 0.000000
vt 0.200000 0.000000 0.000000
vt 0.000000 0.600000 0.000000
vt 0.200000 0.600000 0.000000
vt 0.000000 0.000000 0.000000
vt 0.300000 0.000000 0.000000
vt 0.000000 0.600000 0.000000
vt 0.300000 0.600000 0.000000
vt 1.700000 0.600000 0.000000
vt 0.200000 0.600000 0.000000
vt 1.700000 0.000000 0.000000
vt 0.200000 0.000000 0.000000
vt -0.750000 -0.200000 0.000000
vt -0.150000 0.100000 0.000000
vt -0.750000 0.200000 0.000000
vt 0.150000 0.100000 0.000000
vt 0.750000 0.200000 0.000000
vt 0.750000 -0.200000 0.000000
vt 0.150000 -0.100000 0.000000
vt -0.150000 -0.100000 0.000000
vt -0.000000 0.900000 0.000000
vt 0.000000 0.000000 0.000000
vt 0.550000 0.300000 0.000000
vt 1.500000 0.000000 0.000000
vt 0.950000 0.300000 0.000000
vt 1.500000 0.900000 0.000000
vt 0.950000 0.900000 0.000000
vt 0.550000 0.900000 0.000000
vt 0.000000 0.000000 0.000000
vt 1.500000 0.000000 0.000000
vt -0.000000 0.900000 0.000000
vt 1.500000 0.900000 0.000000
vt 0.000000 0.900000 0.000000
vt 0.000000 0.000000 0.000000
vt 0.550000 0.300000 0.000000
vt 1.500000 0.000000 0.000000
vt 0.950000 0.300000 0.000000
vt 1.500000 0.900000 0.000000
vt 0.950000 0.900000 0.000000
vt 0.550000 0.900000 0.000000
vt 0.000000 0.000000 0.000000
vt 1.500000 0.000000 0.000000
vt -0.000000 0.900000 0.000000
vt 1.500000 0.900000 0.000000
vt 0.000000 0.000000 0.000000
vt 1.700000 0.000000 0.000000
vt 0.000000 0.900000 0.000000
vt 1.700000 0.900000 0.000000
vt -0.000000 0.000000 0.000000
vt -0.000000 0.026180 0.000000
vt -0.400000 0.000000 0.000000
vt -0.900000 0.026180 0.000000
vt -0.900000 0.000000 0.000000
vt -0.900000 0.052360 0.000000
vt -0.000000 0.052360 0.000000
vt -0.900000 0.078540 0.000000
vt -0.000000 0.078540 0.000000
vt -0.900000 0.104720 0.000000
vt -0.000000 0.104720 0.000000
vt -0.900000 0.130900 0.000000
vt -0.000000 0.130900 0.000000
vt -0.900000 0.157080 0.000000
vt -0.000000 0.157080 0.000000
vt -0.900000 0.000000 0.000000
vt -0.000000 0.000000 0.000000
vt -0.900000 0.026180 0.000000
vt -0.000000 0.026180 0.000000
vt -0.900000 0.052360 0.000000
vt -0.000000 0.052360 0.000000
vt -0.900000 0.078540 0.000000
vt -0.000000 0.078540 0.000000
vt -0.900000 0.104720 0.000000
vt -0.000000 0.104720 0.000000
vt -0.900000 0.130900 0.000000
vt -0.000000 0.130900 0.000000
vt -0.400000 0.157080 0.000000
vt -0.000000 0.157080 0.000000
vt -0.900000 0.157080 0.000000
vt 0.000000 0.000000 0.000000
vt 1.700000 0.000000 0.000000
vt 0.000000 0.900000 0.000000
vt 1.700000 0.900000 0.000000
vt -0.000000 0.000000 0.000000
vt -0.000000 0.026180 0.000000
vt -0.400000 0.000000 0.000000
vt -0.900000 0.026180 0.000000
vt -0.900000 0.000000 0.000000
vt -0.900000 0.052360 0.000000
vt -0.000000 0.052360 0.000000
vt -0.900000 0.078540 0.000000
vt -0.000000 0.078540 0.000000
vt -0.900000 0.104720 0.000000
vt -0.000000 0.104720 0.000000
vt -0.900000 0.130900 0.000000
vt -0.000000 0.130900 0.000000
vt -0.900000 0.157080 0.000000
vt -0.000000 0.157080 0.000000
vt -0.900000 -0.000000 0.000000
vt -0.000000 0.000000 0.000000
vt -0.900000 0.026180 0.000000
vt -0.000000 0.026180 0.000000
vt -0.900000 0.052360 0.000000
vt -0.000000 0.052360 0.000000
vt -0.900000 0.078540 0.000000
vt -0.000000 0.078540 0.000000
vt -0.900000 0.104720 0.000000
vt -0.000000 0.104720 0.000000
vt -0.900000 0.130900 0.000000
vt -0.000000 0.130900 0.000000
vt -0.400000 0.157080 0.000000
vt -0.000000 0.157080 0.000000
vt -0.900000 0.157080 0.000000
vt -0.750000 -0.750000 0.000000
vt 0.850000 -0.950000 0.000000
vt 0.750000 -0.750000 0.000000
vt 0.875882 -0.946593 0.000000
vt 0.900000 -0.936603 0.000000
vt -0.750000 0.750000 0.000000
vt -0.950000 -0.850000 0.000000
vt -0.946593 -0.875882 0.000000
vt -0.936603 -0.900000 0.000000
vt 0.750000 0.750000 0.000000
vt -0.850000 0.950000 0.000000
vt -0.950000 0.850000 0.000000
vt 0.950000 -0.850000 0.000000
vt 0.950000 0.850000 0.000000
vt 0.850000 0.950000 0.000000
vt 0.946593 0.875882 0.000000
vt 0.936603 0.900000 0.000000
vt 0.920711 -0.920711 0.000000
vt 0.936603 -0.900000 0.000000
vt 0.946593 -0.875882 0.000000
vt 0.920711 0.920711 0.000000
vt 0.900000 0.936603 0.000000
vt 0.875882 0.946593 0.000000
vt -0.875882 0.946593 0.000000
vt -0.900000 0.936603 0.000000
vt -0.920711 0.920711 0.000000
vt -0.936603 0.900000 0.000000
vt -0.946593 0.875882 0.000000
vt -0.920711 -0.920711 0.000000
vt -0.900000 -0.936603 0.000000
vt -0.875882 -0.946593 0.000000
vt -0.850000 -0.950000 0.000000
vn 0.000000 0.000000 -0.100000
vn 0.000000 0.000000 -0.100000
vn 0.000000 0.000000 -0.100000
vn 0.000000 0.000000 -0.100000
vn 0.000000 -0.100000 0.000000
vn 0.000000 -0.100000 0.000000
vn 0.000000 -0.100000 0.000000
vn 0.000000 -0.100000 0.000000
vn 0.000000 0.000000 -0.100000
vn 0.000000 0.000000 -0.100000
vn 0.000000 0.000000 -0.100000
vn 0.000000 0.000000 -0.100000
vn 0.000000 0.100000 0.000000
vn 0.000000 0.100000 0.000000
vn 0.000000 0.100000 0.000000
vn 0.000000 0.100000 0.000000
vn 0.100000 0.000000 0.000000
vn 0.100000 0.000000 0.000000
vn 0.100000 0.000000 0.000000
vn 0.100000 0.000000 0.000000
vn -0.000000 -0.100000 0.000000
vn -0.000000 -0.100000 0.000000
vn -0.000000 -0.100000 0.000000
vn -0.000000 -0.100000 0.000000
vn -0.100000 0.000000 0.000000
vn -0.100000 0.000000 0.000000
vn -0.100000 0.000000 0.000000
vn -0.100000 0.000000 0.000000
vn -0.100000 0.000000 0.000000
vn -0.100000 0.000000 0.000000
vn -0.100000 0.000000 0.000000
vn -0.100000 0.000000 0.000000
vn 0.000000 0.100000 0.000000
vn 0.000000 0.100000 0.000000
vn 0.000000 0.100000 0.000000
vn 0.000000 0.100000 0.000000
vn 0.100000 0.000000 0.000000
vn 0.100000 0.000000 0.000000
vn 0.100000 0.000000 0.000000
vn 0.100000 0.000000 0.000000
vn 0.000000 0.000000 0.100000
vn 0.000000 0.000000 0.100000
vn 0.000000 0.000000 0.100000
vn 0.000000 0.000000 0.100000
vn 0.000000 0.000000 0.100000
vn 0.000000 0.000000 0.100000
vn 0.000000 0.000000 0.100000
vn 0.000000 0.000000 0.100000
vn 0.000000 0.000000 0.100000
vn 0.000000 0.000000 0.100000
vn 0.000000 0.000000 0.100000
vn 0.000000 0.000000 0.100000
vn 0.000000 0.000000 0.100000
vn 0.000000 0.000000 0.100000
vn 0.000000 0.000000 0.100000
vn 0.000000 0.000000 0.100000
vn 0.000000 0.000000 0.100000
vn 0.000000 0.000000 0.100000
vn 0.000000 0.000000 0.100000
vn 0.000000 0.000000 0.100000
vn 0.000000 0.000000 0.100000
vn 0.000000 0.000000 0.100000
vn 0.000000 0.000000 0.100000
vn 0.000000 0.000000 0.100000
vn 0.000000 0.000000 0.100000
vn 0.000000 0.000000 0.100000
vn 0.000000 0.000000 0.100000
vn 0.000000 0.000000 0.100000
vn 0.000000 0.000000 0.100000
vn 0.000000 0.000000 0.100000
vn 0.000000 0.000000 0.100000
vn 0.000000 0.000000 0.100000
vn 0.000000 0.000000 0.100000
vn 0.000000 0.000000 0.100000
vn 0.000000 0.000000 0.100000
vn 0.000000 0.000000 0.100000
vn 0.000000 0.000000 0.100000
vn 0.000000 0.000000 0.100000
vn 0.000000 0.000000 0.100000
vn 0.000000 0.000000 0.100000
vn 0.000000 0.000000 0.100000
vn 0.000000 0.000000 0.100000
vn 0.000000 0.000000 0.100000
vn 0.000000 0.000000 0.100000
vn 0.000000 0.100000 0.000000
vn 0.000000 0.100000 0.000000
vn 0.000000 0.100000 0.000000
vn 0.000000 0.100000 0.000000
vn -0.100000 0.000000 0.000000
vn -0.100000 0.000000 0.000000
vn -0.100000 0.000000 0.000000
vn -0.100000 0.000000 0.000000
vn 0.000000 -0.100000 0.000000
vn 0.000000 -0.100000 0.000000
vn 0.000000 -0.100000 0.000000
vn 0.000000 -0.100000 0.000000
vn 0.100000 0.000000 0.000000
vn 0.100000 0.000000 0.000000
vn 0.100000 0.000000 0.000000
vn 0.100000 0.000000 0.000000
vn 0.000000 0.100000 0.000000
vn 0.000000 0.100000 0.000000
vn 0.000000 0.100000 0.000000
vn 0.000000 0.100000 0.000000
vn 0.000000 -0.100000 0.000000
vn 0.000000 -0.100000 0.000000
vn 0.000000 -0.100000 0.000000
vn 0.000000 -0.100000 0.000000
vn 0.000000 0.000000 -0.100000
vn 0.000000 0.000000 -0.100000
vn 0.000000 0.000000 -0.100000
vn 0.000000 0.000000 -0.100000
vn 0.000000 0.000000 -0.100000
vn 0.000000 0.000000 -0.100000
vn 0.000000 0.000000 -0.100000
vn 0.000000 0.000000 -0.100000
vn -0.100000 0.000000 0.000000
vn -0.100000 0.000000 0.000000
vn -0.100000 0.000000 0.000000
vn -0.100000 0.000000 0.000000
vn -0.100000 0.000000 0.000000
vn -0.100000 0.000000 0.000000
vn -0.100000 0.000000 0.000000
vn -0.100000 0.000000 0.000000
vn 0.000000 -0.100000 0.000000
vn 0.000000 -0.100000 0.000000
vn 0.000000 -0.100000 0.000000
vn 0.000000 -0.100000 0.000000
vn 0.100000 0.000000 0.000000
vn 0.100000 0.000000 0.000000
vn 0.100000 0.000000 0.000000
vn 0.100000 0.000000 0.000000
vn 0.100000 0.000000 0.000000
vn 0.100000 0.000000 0.000000
vn 0.100000 0.000000 0.000000
vn 0.100000 0.000000 0.000000
vn -0.000000 0.100000 0.000000
vn -0.000000 0.100000 0.000000
vn -0.000000 0.100000 0.000000
vn -0.000000 0.100000 0.000000
vn -0.100000 0.000000 0.000000
vn -0.100000 0.000000 0.000000
vn -0.100000 0.000000 0.000000
vn -0.100000 0.000000 0.000000
vn -0.025882 0.096593 -0.000000
vn -0.025882 0.096593 -0.000000
vn -0.000000 0.100000 -0.000000
vn -0.050000 0.086603 -0.000000
vn -0.050000 0.086603 -0.000000
vn -0.070711 0.070711 -0.000000
vn -0.070711 0.070711 -0.000000
vn -0.086603 0.050000 -0.000000
vn -0.086603 0.050000 -0.000000
vn -0.096593 0.025882 -0.000000
vn -0.096593 0.025882 -0.000000
vn 0.100000 0.000000 0.000000
vn 0.100000 0.000000 0.000000
vn 0.096593 0.025882 0.000000
vn 0.096593 0.025882 0.000000
vn 0.086603 0.050000 0.000000
vn 0.086603 0.050000 0.000000
vn 0.070711 0.070711 0.000000
vn 0.070711 0.070711 0.000000
vn 0.050000 0.086603 0.000000
vn 0.050000 0.086603 0.000000
vn 0.025882 0.096593 0.000000
vn 0.025882 0.096593 0.000000
vn 0.000000 0.100000 0.000000
vn 0.100000 0.000000 0.000000
vn 0.100000 0.000000 0.000000
vn 0.025882 -0.096593 0.000000
vn 0.025882 -0.096593 0.000000
vn 0.000000 -0.100000 0.000000
vn 0.050000 -0.086603 0.000000
vn 0.050000 -0.086603 0.000000
vn 0.070711 -0.070711 0.000000
vn 0.070711 -0.070711 0.000000
vn 0.086603 -0.050000 0.000000
vn 0.086603 -0.050000 0.000000
vn 0.096593 -0.025882 0.000000
vn 0.096593 -0.025882 0.000000
vn -0.096593 -0.025882 0.000000
vn -0.096593 -0.025882 0.000000
vn -0.086603 -0.050000 0.000000
vn -0.086603 -0.050000 0.000000
vn -0.070711 -0.070711 0.000000
vn -0.070711 -0.070711 0.000000
vn -0.050000 -0.086603 0.000000
vn -0.050000 -0.086603 0.000000
vn -0.025882 -0.096593 0.000000
vn -0.025882 -0.096593 0.000000
vn -0.000000 -0.100000 0.000000
vn -0.000000 0.000000 -0.100000
vn -0.000000 0.000000 -0.100000
vn -0.000000 0.000000 -0.100000
vn -0.000000 0.000000 -0.100000
vn -0.000000 0.000000 -0.100000
vn -0.000000 0.000000 -0.100000
vn -0.000000 0.000000 -0.100000
vn -0.000000 0.000000 -0.100000
vn -0.000000 0.000000 -0.100000
vn -0.000000 0.000000 -0.100000
vn -0.000000 0.000000 -0.100000
vn -0.000000 0.000000 -0.100000
vn -0.000000 0.000000 -0.100000
vn -0.000000 0.000000 -0.100000
vn -0.000000 0.000000 -0.100000
vn -0.000000 0.000000 -0.100000
vn -0.000000 0.000000 -0.100000
vn -0.000000 0.000000 -0.100000
vn -0.000000 0.000000 -0.100000
vn -0.000000 0.000000 -0.100000
vn -0.000000 0.000000 -0.100000
vn -0.000000 0.000000 -0.100000
vn -0.000000 0.000000 -0.100000
vn -0.000000 0.000000 -0.100000
vn -0.000000 0.000000 -0.100000
vn -0.000000 0.000000 -0.100000
vn -0.000000 0.000000 -0.100000
vn -0.000000 0.000000 -0.100000
vn -0.000000 0.000000 -0.100000
vn -0.000000 0.000000 -0.100000
vn -0.000000 0.000000 -0.100000
vn -0.000000 0.000000 -0.100000
usemtl Steel_-_Satin
f 1/1/1 2/2/2 4/3/3
f 4/3/3 2/2/2 3/4/4
f 2/5/5 1/6/6 6/7/7
f 6/7/7 1/6/6 5/8/8
f 7/9/9 8/10/10 10/11/11
f 10/11/11 8/10/10 9/12/12
f 8/13/13 7/14/14 12/15/15
f 12/15/15 7/14/14 11/16/16
f 13/17/17 14/18/18 2/19/19
f 2/19/19 14/18/18 3/20/20
f 14/21/21 15/22/22 3/23/23
f 3/23/23 15/22/22 4/24/24
f 15/25/25 16/26/26 4/27/27
f 4/27/27 16/26/26 1/28/28
f 17/29/29 18/30/30 8/31/31
f 8/31/31 18/30/30 9/32/32
f 18/33/33 19/34/34 9/35/35
f 9/35/35 19/34/34 10/36/36
f 19/37/37 20/38/38 10/39/39
f 10/39/39 20/38/38 7/40/40
f 22/41/41 18/42/42 21/43/43
f 21/43/43 18/42/42 17/44/44
f 21/43/43 17/44/44 50/45/45
f 50/45/45 17/44/44 45/46/46
f 50/45/45 45/46/46 46/47/47
f 23/48/48 39/49/49 22/41/41
f 22/41/41 39/49/49 20/50/50
f 22/41/41 20/50/50 19/51/51
f 24/52/52 26/53/53 23/48/48
f 23/48/48 26/53/53 27/54/54
f 23/48/48 27/54/54 31/55/55
f 31/55/55 27/54/54 28/56/56
f 31/55/55 28/56/56 30/57/57
f 30/57/57 28/56/56 24/52/52
f 30/57/57 24/52/52 50/45/45
f 50/45/45 24/52/52 21/43/43
f 28/56/56 25/58/58 24/52/52
f 24/52/52 25/58/58 26/53/53
f 30/57/57 51/59/59 29/60/60
f 29/60/60 51/59/59 16/61/61
f 29/60/60 16/61/61 15/62/62
f 32/63/63 38/64/64 31/55/55
f 31/55/55 38/64/64 39/49/49
f 31/55/55 39/49/49 23/48/48
f 29/60/60 14/65/65 32/63/63
f 32/63/63 14/65/65 13/66/66
f 32/63/63 13/66/66 38/64/64
f 38/64/64 13/66/66 33/67/67
f 38/64/64 33/67/67 34/68/68
f 34/68/68 35/69/69 38/64/64
f 38/64/64 35/69/69 36/70/70
f 38/64/64 36/70/70 37/71/71
f 40/72/72 41/73/73 39/49/49
f 39/49/49 41/73/73 42/74/74
f 39/49/49 42/74/74 43/75/75
f 43/75/75 44/76/76 39/49/49
f 39/49/49 44/76/76 20/50/50
f 19/51/51 18/42/42 22/41/41
f 46/47/47 47/77/77 50/45/45
f 50/45/45 47/77/77 48/78/78
f 50/45/45 48/78/78 49/79/79
f 50/45/45 51/59/59 30/57/57
f 52/80/80 53/81/81 51/59/59
f 51/59/59 53/81/81 54/82/82
f 51/59/59 54/82/82 55/83/83
f 55/83/83 56/84/84 51/59/59
f 51/59/59 56/84/84 16/61/61
f 15/62/62 14/65/65 29/60/60
f 57/85/85 58/86/86 23/87/87
f 23/87/87 58/86/86 24/88/88
f 59/89/89 60/90/90 26/91/91
f 26/91/91 60/90/90 27/92/92
f 61/93/93 59/94/94 25/95/95
f 25/95/95 59/94/94 26/96/96
f 62/97/97 61/98/98 28/99/99
f 28/99/99 61/98/98 25/100/100
f 60/101/101 62/102/102 27/103/103
f 27/103/103 62/102/102 28/104/104
f 31/105/105 30/106/106 63/107/107
f 63/107/107 30/106/106 64/108/108
f 58/109/109 62/110/110 64/111/111
f 64/111/111 62/110/110 60/112/112
f 64/111/111 60/112/112 63/113/113
f 63/113/113 60/112/112 57/114/114
f 57/114/114 60/112/112 59/115/115
f 57/114/114 59/115/115 61/116/116
f 62/110/110 58/109/109 61/116/116
f 61/116/116 58/109/109 57/114/114
f 22/117/117 65/118/118 57/119/119
f 57/119/119 65/118/118 66/120/120
f 57/119/119 66/120/120 63/121/121
f 63/121/121 66/120/120 32/122/122
f 63/121/121 32/122/122 31/123/123
f 57/119/119 23/124/124 22/117/117
f 67/125/125 65/126/126 21/127/127
f 21/127/127 65/126/126 22/128/128
f 29/129/129 68/130/130 64/131/131
f 64/131/131 68/130/130 67/132/132
f 64/131/131 67/132/132 58/133/133
f 58/133/133 67/132/132 21/134/134
f 58/133/133 21/134/134 24/135/135
f 64/131/131 30/136/136 29/129/129
f 66/137/137 68/138/138 32/139/139
f 32/139/139 68/138/138 29/140/140
f 69/141/141 70/142/142 50/143/143
f 50/143/143 70/142/142 51/144/144
f 12/145/15 71/146/145 8/147/13
f 8/147/13 71/146/145 45/148/146
f 8/147/13 45/148/146 17/149/147
f 45/148/146 71/146/145 46/150/148
f 46/150/148 71/146/145 72/151/149
f 46/150/148 72/151/149 47/152/150
f 47/152/150 72/151/149 73/153/151
f 47/152/150 73/153/151 48/154/152
f 48/154/152 73/153/151 74/155/153
f 48/154/152 74/155/153 49/156/154
f 49/156/154 74/155/153 75/157/155
f 49/156/154 75/157/155 50/158/143
f 50/158/143 75/157/155 69/159/141
f 39/160/156 76/161/157 40/162/158
f 40/162/158 76/161/157 77/163/159
f 40/162/158 77/163/159 41/164/160
f 41/164/160 77/163/159 78/165/161
f 41/164/160 78/165/161 42/166/162
f 42/166/162 78/165/161 79/167/163
f 42/166/162 79/167/163 43/168/164
f 43/168/164 79/167/163 80/169/165
f 43/168/164 80/169/165 44/170/166
f 44/170/166 80/169/165 81/171/167
f 44/170/166 81/171/167 7/172/14
f 7/172/14 81/171/167 11/173/16
f 7/172/14 20/174/168 44/170/166
f 82/175/169 76/176/157 38/177/170
f 38/177/170 76/176/157 39/178/156
f 6/179/7 83/180/171 2/181/5
f 2/181/5 83/180/171 33/182/172
f 2/181/5 33/182/172 13/183/173
f 33/182/172 83/180/171 34/184/174
f 34/184/174 83/180/171 84/185/175
f 34/184/174 84/185/175 35/186/176
f 35/186/176 84/185/175 85/187/177
f 35/186/176 85/187/177 36/188/178
f 36/188/178 85/187/177 86/189/179
f 36/188/178 86/189/179 37/190/180
f 37/190/180 86/189/179 87/191/181
f 37/190/180 87/191/181 38/192/170
f 38/192/170 87/191/181 82/193/169
f 51/194/144 70/195/142 52/196/182
f 52/196/182 70/195/142 88/197/183
f 52/196/182 88/197/183 53/198/184
f 53/198/184 88/197/183 89/199/185
f 53/198/184 89/199/185 54/200/186
f 54/200/186 89/199/185 90/201/187
f 54/200/186 90/201/187 55/202/188
f 55/202/188 90/201/187 91/203/189
f 55/202/188 91/203/189 56/204/190
f 56/204/190 91/203/189 92/205/191
f 56/204/190 92/205/191 1/206/6
f 1/206/6 92/205/191 5/207/8
f 1/206/6 16/208/192 56/204/190
f 66/209/193 5/210/194 68/211/195
f 68/211/195 5/210/194 92/212/196
f 68/211/195 92/212/196 91/213/197
f 65/214/198 82/215/199 66/209/193
f 66/209/193 82/215/199 87/216/200
f 66/209/193 87/216/200 86/217/201
f 67/218/202 11/219/203 65/214/198
f 65/214/198 11/219/203 76/220/204
f 65/214/198 76/220/204 82/215/199
f 68/211/195 70/221/205 67/218/202
f 67/218/202 70/221/205 69/222/206
f 67/218/202 69/222/206 12/223/207
f 12/223/207 69/222/206 75/224/208
f 12/223/207 75/224/208 74/225/209
f 91/213/197 90/226/210 68/211/195
f 68/211/195 90/226/210 89/227/211
f 68/211/195 89/227/211 88/228/212
f 88/228/212 70/221/205 68/211/195
f 74/225/209 73/229/213 12/223/207
f 12/223/207 73/229/213 72/230/214
f 12/223/207 72/230/214 71/231/215
f 12/223/207 11/219/203 67/218/202
f 81/232/216 80/233/217 11/219/203
f 11/219/203 80/233/217 79/234/218
f 11/219/203 79/234/218 78/235/219
f 78/235/219 77/236/220 11/219/203
f 11/219/203 77/236/220 76/220/204
f 86/217/201 85/237/221 66/209/193
f 66/209/193 85/237/221 84/238/222
f 66/209/193 84/238/222 83/239/223
f 83/239/223 6/240/224 66/209/193
f 66/209/193 6/240/224 5/210/194

# 92 vertices
# 240 texture params
# 224 normals
# 192 facets

# 1 groups
