# WaveFront *.obj file (generated by Autodesk ATF)

mtllib b74af773-506f-413a-b1d5-8691c34383a7.mtl

g Body1

v 5.000000 45.000001 45.000000
v 5.000000 50.000001 45.000000
v 45.000001 50.000001 45.000000
v 45.000001 45.000001 45.000000
v 5.000000 0.000000 45.000000
v 5.000000 5.000000 45.000000
v 45.000001 5.000000 45.000000
v 45.000001 0.000000 45.000000
v 50.000001 5.000000 45.000000
v 50.000001 45.000001 45.000000
v 45.000001 45.000001 50.000000
v 5.000000 45.000001 50.000000
v 5.000000 5.000000 50.000000
v 45.000001 5.000000 50.000000
v 50.000001 0.000000 50.000000
v 50.000001 50.000001 50.000000
v 0.000000 50.000001 50.000000
v 0.000000 0.000000 50.000000
v 0.000000 5.000000 45.000000
v 0.000000 45.000001 45.000000
v 5.000000 5.000000 5.000000
v 0.000000 5.000000 5.000000
v 5.000000 0.000000 5.000000
v 5.000000 45.000001 5.000000
v 0.000000 45.000001 5.000000
v 5.000000 50.000001 5.000000
v 45.000001 0.000000 5.000000
v 45.000001 5.000000 5.000000
v 45.000001 45.000001 5.000000
v 45.000001 50.000001 5.000000
v 50.000001 5.000000 5.000000
v 50.000001 45.000001 5.000000
v 45.000001 45.000001 0.000000
v 45.000001 5.000000 0.000000
v 5.000000 45.000001 0.000000
v 5.000000 5.000000 0.000000
v 0.000000 50.000001 0.000000
v 50.000001 50.000001 0.000000
v 50.000001 0.000000 0.000000
v 0.000000 0.000000 0.000000
vt -2.000000 -2.500000 0.000000
vt 2.000000 -2.500000 0.000000
vt -2.000000 -2.000000 0.000000
vt 2.000000 -2.000000 0.000000
vt -2.000000 2.000000 0.000000
vt 2.000000 2.000000 0.000000
vt -2.000000 2.500000 0.000000
vt 2.000000 2.500000 0.000000
vt 2.500000 2.000000 0.000000
vt 2.000000 2.000000 0.000000
vt 2.500000 -2.000000 0.000000
vt 2.000000 -2.000000 0.000000
vt 0.000000 0.000000 0.000000
vt 4.000000 0.000000 0.000000
vt 0.000000 0.500000 0.000000
vt 4.000000 0.500000 0.000000
vt 0.000000 0.000000 0.000000
vt 4.000000 0.000000 0.000000
vt 0.000000 0.500000 0.000000
vt 4.000000 0.500000 0.000000
vt 0.000000 0.000000 0.000000
vt 4.000000 0.000000 0.000000
vt 0.000000 0.500000 0.000000
vt 4.000000 0.500000 0.000000
vt 0.000000 0.000000 0.000000
vt 4.000000 0.000000 0.000000
vt 0.000000 0.500000 0.000000
vt 4.000000 0.500000 0.000000
vt 2.000000 -2.000000 0.000000
vt 2.500000 -2.500000 0.000000
vt 2.000000 2.000000 0.000000
vt 2.500000 2.500000 0.000000
vt -2.500000 2.500000 0.000000
vt -2.000000 -2.000000 0.000000
vt -2.500000 -2.500000 0.000000
vt -2.000000 2.000000 0.000000
vt -2.000000 2.000000 0.000000
vt -2.500000 2.000000 0.000000
vt -2.000000 -2.000000 0.000000
vt -2.500000 -2.000000 0.000000
vt 0.000000 0.000000 0.000000
vt 0.500000 0.000000 0.000000
vt 0.000000 4.000000 0.000000
vt 0.500000 4.000000 0.000000
vt 0.000000 0.000000 0.000000
vt 0.500000 0.000000 0.000000
vt 0.000000 4.000000 0.000000
vt 0.500000 4.000000 0.000000
vt -2.500000 -2.000000 0.000000
vt -2.000000 -2.000000 0.000000
vt -2.500000 2.000000 0.000000
vt -2.000000 2.000000 0.000000
vt 0.000000 0.000000 0.000000
vt 0.500000 0.000000 0.000000
vt 0.000000 4.000000 0.000000
vt 0.500000 4.000000 0.000000
vt 0.000000 0.000000 0.000000
vt 0.500000 0.000000 0.000000
vt 0.000000 4.000000 0.000000
vt 0.500000 4.000000 0.000000
vt -2.000000 -2.500000 0.000000
vt 2.000000 -2.500000 0.000000
vt -2.000000 -2.000000 0.000000
vt 2.000000 -2.000000 0.000000
vt -2.000000 2.000000 0.000000
vt 2.000000 2.000000 0.000000
vt -2.000000 2.500000 0.000000
vt 2.000000 2.500000 0.000000
vt -0.000000 0.000000 0.000000
vt 0.500000 0.000000 0.000000
vt -0.000000 4.000000 0.000000
vt 0.500000 4.000000 0.000000
vt -0.000000 0.000000 0.000000
vt 0.500000 0.000000 0.000000
vt -0.000000 4.000000 0.000000
vt 0.500000 4.000000 0.000000
vt 2.000000 -2.000000 0.000000
vt 2.500000 -2.000000 0.000000
vt 2.000000 2.000000 0.000000
vt 2.500000 2.000000 0.000000
vt 0.000000 0.000000 0.000000
vt 0.500000 0.000000 0.000000
vt 0.000000 4.000000 0.000000
vt 0.500000 4.000000 0.000000
vt 0.000000 0.000000 0.000000
vt 0.500000 0.000000 0.000000
vt 0.000000 4.000000 0.000000
vt 0.500000 4.000000 0.000000
vt 0.000000 0.000000 0.000000
vt 4.000000 0.000000 0.000000
vt 0.000000 0.500000 0.000000
vt 4.000000 0.500000 0.000000
vt 0.000000 0.000000 0.000000
vt 4.000000 0.000000 0.000000
vt 0.000000 0.500000 0.000000
vt 4.000000 0.500000 0.000000
vt 0.000000 0.000000 0.000000
vt 4.000000 0.000000 0.000000
vt 0.000000 0.500000 0.000000
vt 4.000000 0.500000 0.000000
vt 0.000000 0.000000 0.000000
vt 4.000000 0.000000 0.000000
vt 0.000000 0.500000 0.000000
vt 4.000000 0.500000 0.000000
vt 4.500000 0.500000 0.000000
vt 5.000000 0.000000 0.000000
vt 4.500000 4.500000 0.000000
vt 5.000000 5.000000 0.000000
vt 0.000000 5.000000 0.000000
vt 0.500000 0.500000 0.000000
vt 0.000000 0.000000 0.000000
vt 0.500000 4.500000 0.000000
vt 0.000000 0.000000 0.000000
vt 0.500000 4.500000 0.000000
vt 0.000000 5.000000 0.000000
vt 4.500000 4.500000 0.000000
vt 5.000000 5.000000 0.000000
vt 5.000000 0.000000 0.000000
vt 4.500000 0.500000 0.000000
vt 0.500000 0.500000 0.000000
vt 0.000000 0.000000 0.000000
vt 0.500000 4.500000 0.000000
vt 0.000000 5.000000 0.000000
vt 4.500000 4.500000 0.000000
vt 5.000000 5.000000 0.000000
vt 5.000000 0.000000 0.000000
vt 4.500000 0.500000 0.000000
vt 0.500000 0.500000 0.000000
vt 4.500000 0.500000 0.000000
vt 5.000000 0.000000 0.000000
vt 4.500000 4.500000 0.000000
vt 5.000000 5.000000 0.000000
vt 0.000000 5.000000 0.000000
vt 0.500000 0.500000 0.000000
vt 0.000000 0.000000 0.000000
vt 0.500000 4.500000 0.000000
vt 2.000000 2.000000 0.000000
vt 2.000000 -2.000000 0.000000
vt 2.500000 -2.500000 0.000000
vt -2.000000 -2.000000 0.000000
vt -2.500000 -2.500000 0.000000
vt -2.000000 2.000000 0.000000
vt -2.500000 2.500000 0.000000
vt 2.500000 2.500000 0.000000
vn 0.000000 0.000000 -0.100000
vn 0.000000 0.000000 -0.100000
vn 0.000000 0.000000 -0.100000
vn 0.000000 0.000000 -0.100000
vn 0.000000 0.000000 -0.100000
vn 0.000000 0.000000 -0.100000
vn 0.000000 0.000000 -0.100000
vn 0.000000 0.000000 -0.100000
vn 0.000000 0.000000 -0.100000
vn 0.000000 0.000000 -0.100000
vn 0.000000 -0.100000 0.000000
vn 0.000000 -0.100000 0.000000
vn 0.000000 -0.100000 0.000000
vn 0.000000 -0.100000 0.000000
vn 0.100000 -0.000000 0.000000
vn 0.100000 -0.000000 0.000000
vn 0.100000 -0.000000 0.000000
vn 0.100000 -0.000000 0.000000
vn 0.000000 0.100000 0.000000
vn 0.000000 0.100000 0.000000
vn 0.000000 0.100000 0.000000
vn 0.000000 0.100000 0.000000
vn -0.100000 0.000000 0.000000
vn -0.100000 0.000000 0.000000
vn -0.100000 0.000000 0.000000
vn -0.100000 0.000000 0.000000
vn 0.000000 0.000000 0.100000
vn 0.000000 0.000000 0.100000
vn 0.000000 0.000000 0.100000
vn 0.000000 0.000000 0.100000
vn 0.000000 0.000000 0.100000
vn 0.000000 0.000000 0.100000
vn 0.000000 0.000000 0.100000
vn 0.000000 0.000000 0.100000
vn 0.000000 0.000000 -0.100000
vn 0.000000 0.000000 -0.100000
vn 0.000000 0.100000 0.000000
vn 0.000000 0.100000 0.000000
vn 0.000000 0.100000 0.000000
vn 0.100000 0.000000 0.000000
vn 0.100000 0.000000 0.000000
vn 0.100000 0.000000 0.000000
vn 0.000000 0.000000 0.100000
vn 0.000000 0.000000 0.100000
vn 0.000000 0.000000 0.100000
vn 0.000000 0.000000 0.100000
vn 0.100000 0.000000 0.000000
vn 0.100000 0.000000 0.000000
vn 0.100000 0.000000 0.000000
vn 0.000000 -0.100000 0.000000
vn 0.000000 -0.100000 0.000000
vn 0.000000 -0.100000 0.000000
vn 0.000000 0.000000 0.100000
vn 0.000000 0.000000 0.100000
vn 0.000000 0.000000 0.100000
vn 0.000000 0.000000 0.100000
vn 0.000000 0.000000 0.100000
vn 0.000000 0.000000 0.100000
vn -0.100000 0.000000 0.000000
vn -0.100000 0.000000 0.000000
vn -0.100000 0.000000 0.000000
vn 0.000000 0.100000 0.000000
vn 0.000000 0.100000 0.000000
vn 0.000000 0.100000 0.000000
vn 0.000000 0.000000 0.100000
vn 0.000000 0.000000 0.100000
vn 0.000000 -0.100000 0.000000
vn 0.000000 -0.100000 0.000000
vn 0.000000 -0.100000 0.000000
vn -0.100000 0.000000 0.000000
vn -0.100000 0.000000 0.000000
vn -0.100000 0.000000 0.000000
vn -0.100000 0.000000 0.000000
vn -0.100000 0.000000 0.000000
vn 0.000000 -0.100000 0.000000
vn 0.000000 -0.100000 0.000000
vn 0.100000 0.000000 0.000000
vn 0.100000 0.000000 0.000000
vn 0.000000 0.100000 0.000000
vn 0.000000 0.100000 0.000000
vn 0.000000 0.100000 0.000000
vn 0.000000 0.100000 0.000000
vn 0.000000 0.100000 0.000000
vn 0.000000 0.100000 0.000000
vn 0.000000 0.100000 0.000000
vn 0.000000 0.100000 0.000000
vn 0.000000 0.100000 0.000000
vn 0.000000 0.100000 0.000000
vn 0.100000 0.000000 0.000000
vn 0.100000 0.000000 0.000000
vn 0.100000 0.000000 0.000000
vn 0.100000 0.000000 0.000000
vn 0.100000 0.000000 0.000000
vn 0.100000 0.000000 0.000000
vn 0.100000 0.000000 0.000000
vn 0.100000 0.000000 0.000000
vn 0.000000 -0.100000 0.000000
vn 0.000000 -0.100000 0.000000
vn 0.000000 -0.100000 0.000000
vn 0.000000 -0.100000 0.000000
vn 0.000000 -0.100000 0.000000
vn 0.000000 -0.100000 0.000000
vn 0.000000 -0.100000 0.000000
vn 0.000000 -0.100000 0.000000
vn -0.100000 0.000000 0.000000
vn -0.100000 0.000000 0.000000
vn -0.100000 0.000000 0.000000
vn -0.100000 0.000000 0.000000
vn -0.100000 0.000000 0.000000
vn -0.100000 0.000000 0.000000
vn -0.100000 0.000000 0.000000
vn -0.100000 0.000000 0.000000
vn 0.000000 0.000000 -0.100000
vn 0.000000 0.000000 -0.100000
vn 0.000000 0.000000 -0.100000
vn 0.000000 0.000000 -0.100000
vn 0.000000 0.000000 -0.100000
vn 0.000000 0.000000 -0.100000
vn 0.000000 0.000000 -0.100000
vn 0.000000 0.000000 -0.100000
usemtl Steel_-_Satin
f 2/1/1 3/2/2 1/3/3
f 1/3/3 3/2/2 4/4/4
f 6/5/5 7/6/6 5/7/7
f 5/7/7 7/6/6 8/8/8
f 9/9/9 7/10/6 10/11/10
f 10/11/10 7/10/6 4/12/4
f 1/13/11 4/14/12 12/15/13
f 12/15/13 4/14/12 11/16/14
f 6/17/15 1/18/16 13/19/17
f 13/19/17 1/18/16 12/20/18
f 7/21/19 6/22/20 14/23/21
f 14/23/21 6/22/20 13/24/22
f 4/25/23 7/26/24 11/27/25
f 11/27/25 7/26/24 14/28/26
f 14/29/27 15/30/28 11/31/29
f 11/31/29 15/30/28 16/32/30
f 11/31/29 16/32/30 17/33/31
f 14/29/27 13/34/32 15/30/28
f 15/30/28 13/34/32 18/35/33
f 18/35/33 13/34/32 12/36/34
f 18/35/33 12/36/34 17/33/31
f 17/33/31 12/36/34 11/31/29
f 6/37/5 19/38/35 1/39/3
f 1/39/3 19/38/35 20/40/36
f 21/41/37 22/42/38 6/43/20
f 6/43/20 22/42/38 19/44/39
f 23/45/40 21/46/41 5/47/42
f 5/47/42 21/46/41 6/48/15
f 22/49/43 21/50/44 25/51/45
f 25/51/45 21/50/44 24/52/46
f 24/53/47 26/54/48 1/55/16
f 1/55/16 26/54/48 2/56/49
f 25/57/50 24/58/51 20/59/52
f 20/59/52 24/58/51 1/60/11
f 23/61/53 27/62/54 21/63/44
f 21/63/44 27/62/54 28/64/55
f 24/65/46 29/66/56 26/67/57
f 26/67/57 29/66/56 30/68/58
f 28/69/59 27/70/60 7/71/24
f 7/71/24 27/70/60 8/72/61
f 31/73/62 28/74/63 9/75/64
f 9/75/64 28/74/63 7/76/19
f 28/77/55 31/78/65 29/79/56
f 29/79/56 31/78/65 32/80/66
f 29/81/67 32/82/68 4/83/12
f 4/83/12 32/82/68 10/84/69
f 30/85/70 29/86/71 3/87/72
f 3/87/72 29/86/71 4/88/23
f 33/89/73 34/90/74 29/91/71
f 29/91/71 34/90/74 28/92/59
f 35/93/75 33/94/76 24/95/51
f 24/95/51 33/94/76 29/96/67
f 36/97/77 35/98/78 21/99/41
f 21/99/41 35/98/78 24/100/47
f 34/101/79 36/102/80 28/103/63
f 28/103/63 36/102/80 21/104/37
f 26/105/81 37/106/82 2/107/83
f 2/107/83 37/106/82 17/108/84
f 2/107/83 17/108/84 16/109/85
f 26/105/81 30/110/86 37/106/82
f 37/106/82 30/110/86 38/111/87
f 38/111/87 30/110/86 3/112/88
f 38/111/87 3/112/88 16/109/85
f 16/109/85 3/112/88 2/107/83
f 39/113/89 9/114/90 15/115/91
f 15/115/91 9/114/90 10/116/92
f 15/115/91 10/116/92 16/117/93
f 16/117/93 10/116/92 38/118/94
f 38/118/94 10/116/92 32/119/95
f 38/118/94 32/119/95 31/120/96
f 9/114/90 39/113/89 31/120/96
f 31/120/96 39/113/89 38/118/94
f 40/121/97 5/122/98 18/123/99
f 18/123/99 5/122/98 8/124/100
f 18/123/99 8/124/100 15/125/101
f 15/125/101 8/124/100 39/126/102
f 39/126/102 8/124/100 27/127/103
f 39/126/102 27/127/103 23/128/104
f 5/122/98 40/121/97 23/128/104
f 23/128/104 40/121/97 39/126/102
f 22/129/105 40/130/106 19/131/107
f 19/131/107 40/130/106 18/132/108
f 19/131/107 18/132/108 17/133/109
f 22/129/105 25/134/110 40/130/106
f 40/130/106 25/134/110 37/135/111
f 37/135/111 25/134/110 20/136/112
f 37/135/111 20/136/112 17/133/109
f 17/133/109 20/136/112 19/131/107
f 35/137/113 36/138/114 40/139/115
f 40/139/115 36/138/114 34/140/116
f 40/139/115 34/140/116 39/141/117
f 39/141/117 34/140/116 33/142/118
f 39/141/117 33/142/118 38/143/119
f 38/143/119 33/142/118 35/137/113
f 38/143/119 35/137/113 37/144/120
f 37/144/120 35/137/113 40/139/115

# 40 vertices
# 144 texture params
# 120 normals
# 96 facets

# 1 groups
